<?xml version="1.0" encoding="utf-8"?>
<!-- Generator: Adobe Illustrator 16.0.0, SVG Export Plug-In . SVG Version: 6.00 Build 0)  -->
<!DOCTYPE svg PUBLIC "-//W3C//DTD SVG 1.1//EN" "http://www.w3.org/Graphics/SVG/1.1/DTD/svg11.dtd">
<svg version="1.1" id="hammer-round" xmlns="http://www.w3.org/2000/svg" xmlns:xlink="http://www.w3.org/1999/xlink" x="0px" y="0px" width="200px" height="200px" viewBox="0 0 200 200" enable-background="new 0 0 200 200" xml:space="preserve">
    <defs>
        <linearGradient id="gradient" x1="0%" y1="0%" x2="0%" y2="100%">
            <stop offset="0%" style="stop-color:#008c8a;" />
            <stop offset="100%" style="stop-color:#007c7a;" />
        </linearGradient>
    </defs>
    <g>
        <path fill-rule="evenodd" clip-rule="evenodd" fill="#00AB98" style="fill:url(#gradient)" d="M100,0C44.771,0,0,44.771,0,100s44.771,100,100,100
        s100-44.771,100-100S155.229,0,100,0z M148,67c-6.775-0.631-22.08-3-32-3c-5.648,0-8.104,2.593-9.174,4.827
        c0.101,8.179,1.129,92.543,1.129,94.81l-1.129-94.81C106.017,70.516,106,72,106,72s1,81.904,1,84s0.961,8.106-2,9s-5-0.614-9-5
        s-4-11-4-11s1-58.722,1-73S80,63,80,63s-10.322,0-13,0s-3-2-3-2V47c0-3.957,8-3,8-3h23c24.451,0,54.432,19.907,53,19
        S154.775,67.631,148,67z M106.826,68.827C106.826,68.827,106.826,68.827,106.826,68.827c-0.003-0.263-0.006-0.447-0.007-0.548
        L106.826,68.827z M106.819,68.279l-0.001-0.098C106.818,68.182,106.818,68.22,106.819,68.279z" />
    </g>
</svg>
