<?xml version="1.0" encoding="utf-8"?>
<!-- Generator: Adobe Illustrator 16.0.0, SVG Export Plug-In . SVG Version: 6.00 Build 0)  -->
<!DOCTYPE svg PUBLIC "-//W3C//DTD SVG 1.1//EN" "http://www.w3.org/Graphics/SVG/1.1/DTD/svg11.dtd">
<svg version="1.1" id="hammer" xmlns="http://www.w3.org/2000/svg" xmlns:xlink="http://www.w3.org/1999/xlink" x="0px" y="0px" width="200px" height="200px" viewBox="0 0 200 200" enable-background="new 0 0 200 200" xml:space="preserve">
    <path fill="#888" d="M28.5,9.344v21.921c0,0,0.504,3.131,4.704,3.131c4.2,0,20.383,0,20.383,0S73.97,32.396,73.97,54.752
    s-1.568,114.303-1.568,114.303s0,10.357,6.272,17.224c6.271,6.867,9.469,9.229,14.111,7.829c4.642-1.399,3.136-10.811,3.136-14.092
    S94.354,48.489,94.354,48.489s0.126-12.526,15.68-12.526s39.552,3.709,50.174,4.697s-2.244-7.684,0-6.263
    s-44.763-29.75-83.101-29.75c-32.252,0-35.762,0-36.063,0C41.043,4.647,28.5,3.149,28.5,9.344z" />
</svg>
