<?xml version="1.0" standalone="no"?>
<!DOCTYPE svg PUBLIC "-//W3C//DTD SVG 1.1//EN" "http://www.w3.org/Graphics/SVG/1.1/DTD/svg11.dtd"><svg t="1573108011823" class="icon" viewBox="0 0 1171 1024" version="1.1" xmlns="http://www.w3.org/2000/svg" p-id="12751" xmlns:xlink="http://www.w3.org/1999/xlink" width="73.1875" height="64">
    <path fill="#888" d="M1157.769499 767.332018c-33.847765-82.191924-124.161783-127.851566-210.477583-106.638168a184.157889 184.157889 0 0 0-29.849548 10.098355C863.61494 694.313146 801.928158 691.114572 749.71144 664.223705l-7.185368-3.689783c-30.340758-15.638741-51.782626-44.677223-56.88892-78.422177a126.652101 126.652101 0 0 0-5.380458-22.275782 78.604952 78.604952 0 0 1 15.810093-78.821999l0.891031-0.982419c16.861054-18.471764 41.124521-28.558695 65.707846-25.919871a88.292062 88.292062 0 0 0 18.026248 0 87.046903 87.046903 0 1 0-95.660205-92.952841 88.292062 88.292062 0 0 0 0.559751 18.049095c3.209997 23.806528-3.427043 47.875796-19.602688 65.627881l-14.4507 15.832941a63.034752 63.034752 0 0 1-62.280802 18.68881l-0.776797-0.205623a44.848575 44.848575 0 0 1-33.288015-36.555129l-0.411245-2.650247c-7.265332-46.676331 10.201166-93.227004 44.894269-125.304131a181.701842 181.701842 0 0 0 25.794213-29.701043c55.266787-79.404596 35.412782-194.827418-43.317829-251.088047a181.347714 181.347714 0 0 0-257.6337 48.778251c-51.942555 79.907229-29.586808 193.308095 48.698287 247.661004a181.507643 181.507643 0 0 0 35.2757 19.122902c44.345942 18.003401 75.223603 58.945147 82.580323 106.238346l0.274163 1.747792a44.882845 44.882845 0 0 1-17.523615 42.826619 134.317255 134.317255 0 0 0-13.159847 11.252126 56.500522 56.500522 0 0 1-62.337919 11.023657l-3.15288-1.405088c-24.69756-10.966539-43.409217-31.585917-53.690347-56.59191q-1.416511-3.427043-3.221421-6.854087a74.252607 74.252607 0 1 0-49.600742 107.63201 75.394955 75.394955 0 0 0 11.777606-3.461314c24.651866-9.869885 52.399494-8.44195 76.674385 2.284696l9.949849 4.420886a57.368707 57.368707 0 0 1 33.425097 46.562096v0.434092c0 0.319857 0 0.639715 0.068541 0.959572 1.336547 25.29158-10.006967 49.555048-31.174672 63.468844l-2.673094 1.759216c-35.047231 23.018308-79.735877 23.486671-116.268159 2.901563a181.027856 181.027856 0 0 0-43.409217-17.500768C131.769819 642.393439 29.918089 702.480933 5.654622 797.889822A181.347714 181.347714 0 0 0 144.564115 1020.224975c96.676895 20.128168 192.782615-42.266869 213.95032-138.749565a180.856504 180.856504 0 0 0 4.123875-45.122738c-1.3137-37.697478 18.083366-73.235918 49.657859-93.980954l16.689702-10.955115c19.47703-12.794295 44.425906-14.850521 65.285177-4.512274q3.929676 1.953415 7.996434 3.666937A45.853841 45.853841 0 0 1 530.163616 770.050806l0.799643 12.737178a18.803045 18.803045 0 0 1-9.698533 17.523615A87.046903 87.046903 0 1 0 634.996874 926.552455c24.743253-34.613138 20.368061-83.071532-10.144049-112.726882a86.989785 86.989785 0 0 0-34.270434-20.56226 18.905856 18.905856 0 0 1-13.365469-16.712548v-0.49121a46.53925 46.53925 0 0 1 28.684353-45.693912l0.685409-0.297011c28.821435-12.417321 61.858134-10.349671 89.754267 4.032488l13.708173 7.071133a197.3977 197.3977 0 0 1 102.811303 133.654693q1.793486 8.327715 4.398039 16.621161c29.221257 92.632983 127.942954 146.220519 221.489815 120.152142a181.370561 181.370561 0 0 0 119.021218-244.268231z" p-id="12752"></path>
</svg>
